/* XPM */
static char *_1eabe7659e74ebaa8d9b867dd9fa500[] = {
/* columns rows colors chars-per-pixel */
"32 32 244 2 ",
"   c #181856",
".  c #221E5C",
"X  c #1B215E",
"o  c #252D55",
"O  c #352755",
"+  c #32245C",
"@  c #3A2A5B",
"#  c #283157",
"$  c #2C345A",
"%  c #2E385D",
"&  c #31365B",
"*  c #32395E",
"=  c #1F2861",
"-  c #272E65",
";  c #392962",
":  c #3A2D6A",
">  c #213368",
",  c #2B346A",
"<  c #273A6C",
"1  c #323C60",
"2  c #323E68",
"3  c #2D3D72",
"4  c #2A3F7C",
"5  c #34397E",
"6  c #432A55",
"7  c #462C59",
"8  c #493A5D",
"9  c #662155",
"0  c #642D51",
"q  c #723459",
"w  c #79355B",
"e  c #7B395E",
"r  c #44306D",
"t  c #48326D",
"y  c #5F3660",
"u  c #5D3C61",
"i  c #603C61",
"p  c #683B62",
"a  c #773B62",
"s  c #7C3C62",
"d  c #67397B",
"f  c #374164",
"g  c #3A4267",
"h  c #36426A",
"j  c #3A436A",
"k  c #2F4372",
"l  c #334476",
"z  c #384375",
"x  c #3B4A74",
"c  c #32437C",
"v  c #3A457B",
"b  c #384A7E",
"n  c #0D777F",
"m  c #504060",
"M  c #5C4061",
"N  c #5A4C6E",
"B  c #5F4C71",
"V  c #44507D",
"C  c #4A547F",
"Z  c #4D5D7D",
"A  c #5C557B",
"S  c #614664",
"D  c #6D426B",
"F  c #654A6B",
"G  c #6A4C6C",
"H  c #714E6D",
"J  c #72506F",
"K  c #794C72",
"L  c #7A4778",
"P  c #7B4C7D",
"I  c #6C5474",
"U  c #65517D",
"Y  c #605A7F",
"T  c #755572",
"R  c #785776",
"E  c #77577C",
"W  c #7B507E",
"Q  c #75587B",
"!  c #7D5A7B",
"~  c #5A617F",
"^  c #843D64",
"/  c #8D3F6E",
"(  c #953E6C",
")  c #983F6D",
"_  c #843374",
"`  c #843D77",
"'  c #8D377C",
"]  c #923B7F",
"[  c #9D3E79",
"{  c #A9347A",
"}  c #894066",
"|  c #884168",
" . c #8E427C",
".. c #844A7F",
"X. c #9C427C",
"o. c #84527B",
"O. c #805C7B",
"+. c #895D7C",
"@. c #A1477E",
"#. c #A1487F",
"$. c #AE497D",
"%. c #1B3682",
"&. c #253B86",
"*. c #223D8B",
"=. c #363A82",
"-. c #773784",
";. c #753883",
":. c #7C3C80",
">. c #7C398A",
",. c #374780",
"<. c #364A83",
"1. c #3E4E83",
"2. c #34498A",
"3. c #3C528C",
"4. c #0D6784",
"5. c #0E6F81",
"6. c #464E89",
"7. c #534D80",
"8. c #594983",
"9. c #445383",
"0. c #4B5582",
"q. c #4B5986",
"w. c #405289",
"e. c #4F558E",
"r. c #45598F",
"t. c #485C8C",
"y. c #515789",
"u. c #5B5488",
"i. c #525E8A",
"p. c #5C5B8B",
"a. c #5C5E92",
"s. c #774E85",
"d. c #74498B",
"f. c #615286",
"g. c #64558B",
"h. c #7C5484",
"j. c #70548B",
"k. c #6C5B91",
"l. c #4A628A",
"z. c #53648D",
"x. c #5B668F",
"c. c #546697",
"v. c #576C9A",
"b. c #5F6D9C",
"n. c #63638E",
"m. c #77628C",
"M. c #7D658F",
"N. c #6D6194",
"B. c #616E94",
"V. c #6B6F95",
"C. c #746395",
"Z. c #756799",
"A. c #756899",
"S. c #7A6899",
"D. c #667197",
"F. c #677498",
"G. c #697699",
"H. c #74749B",
"J. c #757C9E",
"K. c #5F72A0",
"L. c #6475A2",
"P. c #6A74A3",
"I. c #6778A4",
"U. c #6C7DA7",
"Y. c #6D7DA8",
"T. c #7A7BA2",
"R. c #9A2C83",
"E. c #943A81",
"W. c #9B3E84",
"Q. c #A23D83",
"!. c #A93C83",
"~. c #A73C88",
"^. c #A83D88",
"/. c #8B4783",
"(. c #9E4187",
"). c #944D8A",
"_. c #805186",
"`. c #8E5481",
"'. c #8F538C",
"]. c #815A8A",
"[. c #9D5683",
"{. c #975984",
"}. c #9F5A87",
"|. c #92548C",
" X c #814C91",
".X c #86579A",
"XX c #955991",
"oX c #A04181",
"OX c #A7458B",
"+X c #B14685",
"@X c #BB4C85",
"#X c #B04588",
"$X c #A35381",
"%X c #A95481",
"&X c #AA5E88",
"*X c #B45183",
"=X c #B6528A",
"-X c #BA528B",
";X c #BA5C8D",
":X c #B84B94",
">X c #BF4D99",
",X c #BC5293",
"<X c #8D6992",
"1X c #9F6690",
"2X c #B56194",
"3X c #BC6193",
"4X c #B36E95",
"5X c #BF6896",
"6X c #B76798",
"7X c #B67399",
"8X c #B9769B",
"9X c #B27A9E",
"0X c #B9789D",
"qX c #8F5BA1",
"wX c #A459A4",
"eX c #847AA5",
"rX c #897BA5",
"tX c #897FA9",
"yX c #917CA6",
"uX c #AF6BAD",
"iX c #B67EA0",
"pX c #BC7EA0",
"aX c #B774B3",
"sX c #CE4A8E",
"dX c #CC4D90",
"fX c #D04D90",
"gX c #E04D94",
"hX c #C46698",
"jX c #CA6698",
"kX c #D972BA",
"lX c #7480A2",
"zX c #7D80A2",
"xX c #8080AA",
"cX c #8D81AA",
"vX c #9084AC",
"bX c #9E81B0",
"nX c #A281A2",
"mX c #B483A6",
"MX c #BD83A3",
"NX c #B787A9",
"BX c #A396B0",
"VX c #C086A6",
"CX c #C688A7",
"ZX c None",
/* pixels */
"ZXZXZXZXZXZXZXZXZXZXZXZXZXZXZXZXZXZXZXZXZXZXZXZXZXZXZXZXZXZXZXZX",
"ZXZXZXZXZXZXZXZXZXZXZXZXY.Y.Y.Y.U.zXvXvXZXZXZXZXZXZXZXZXZXZXZXZX",
"ZXZXZXZXZXZXZXZXZXbXI.I.I.L.L.I.T.tXtXtXcXtXrXZXZXZXZXZXZXZXZXZX",
"ZXZXZXZXZXZXZXZXaXP.K.L.L.L.ZXZXZXZXeXrXrXyXNXMXZXZXZXZXZXZXZXZX",
"ZXZXZXZXZXZXkXaXb.v.b.ZXZXZXZXZXZXZXZXZXZXmXCXVX9X9XZXZXZXZXZXZX",
"ZXZXZXZXZXZXuXc.c.ZXZXZXZXZXZXZXZXZXZXZXZXZXZXVXMXMXBXZXZXZXZXZX",
"ZXZXZXZXZXZXZXZXZXZXZXZXN.A.S.A.A.Z.S.9XZXZXZXZXpXnXT.A.ZXZXZXZX",
"ZXZXZXZXZXZXZXZXZXZXr.a.C.Z.k.N.N.C.1X7X0X0XZXZXZXlXT.C.ZXZXZXZX",
"ZXZXZXwXe.3.ZXZXZXw.p.k.k.ZXZXZXZXZXZX4X7X7X7XZXZXZXzXT.N.ZXZXZX",
"ZXZX X6.2.1.l k k i.g.ZXZXZXZXZXZXZXZXZXZX4X<XG.ZXZXH.J.H..XZXZX",
"ZXZX, 3 <.,.k < q.D.ZXZXZXg.j.6X5X}.[.ZXZXZX<.t.G.D.H.H.qXZXZXZX",
"ZXZX- - ZXZX> 9.D.ZXZXu.8.j.2XjXhX3X$X&XZXZXZX4 9.B.V.ZXZXZXZXZX",
"ZX- = = ZXZXq.z.z.ZXZXz.f.ZXZXZXZXZX;Xh.,.ZXZXc c q.ZXZXZXZXZXZX",
"ZXX X X ZXZX3.z.ZXZXl.n.ZXZXZXZXZXZXZXz.x.n.ZXZXn.d.ZXZXZXM.M.ZX",
"ZX.   ZXZXZX*.2.ZXZXp.,XZXZXZX$X%XZXZXZXi.n.ZXZXd.>.ZXZXZXm.].ZX",
"ZXr . ZXZXZX&.&.ZXZX,XgXZXZX=X*XP v v 9.0.0.ZXZX;.>.ZXZXZX_.!.ZX",
"ZXt : ZXZXZX&.&.ZXZXfXdXZXZX*X/.l v v V 0.C ZXZXZX-.ZXZXZX#X{ ZX",
"ZX; + ZXZXZX%.=.ZXZX@XsXZXZXZXz z ZXZXZXZXZXZXZXZXZXZXZXZX-X+XZX",
"ZX+ + + ZXZX5 oXZXZX$.@XZXZXZXZXZXZXZXZXZXZXU U U d ZXZX=X=X-XZX",
"ZX@ @ @ ZXZX/ ) / ZXZX( L ZXZXZXZXZXV U E E E E E W ZXZX~.^.OXZX",
"ZXZX@ @ ZXZXZXs w ZXZXi x 9.q.q.q.q.f.O.+.ZX+.O.{.ZXZXZXR.R.ZXZX",
"ZXZXO 7 s ZXZX| e w ZXZXZX,.1.0.0.A I ZXZXZXR `.>XZXZX@.R.R.ZXZX",
"ZXZX7 a | ZXZXZX^ u j ZXZXZXZXZXZXZXZXZXZXT o.:XZXZXZX@.X.:.ZXZX",
"ZXZXZXe s ^ ZXZXZXg g g j ZXZXZXZXZXZXI T T  .ZXZXZXX.X.p.ZXZXZX",
"ZXZXZXZXq a e ZXZXZXf f h l B H I G N G K ` ZXZXZXOX[ Z ZXZXZXZX",
"ZXZXZXZX0 q u f ZXZXZXZX2 N H G G G F F ZXZXZXZX` Q.Z n ZXZXZXZX",
"ZXZXZXZXZXy $ * 1 ZXZXZXZXZXZXG G ZXZXZXZXZXZX(.Q.0.5.ZXZXZXZXZX",
"ZXZXZXZXZXZXo $ * % * ZXZXZXZXS S ZXZXZXZXW.W.Q.0.4.ZXZXZXZXZXZX",
"ZXZXZXZXZXZXZXZX# & m S ZXZXZXS D ] E.).XX).E.7.ZXZXZXZXZXZXZXZX",
"ZXZXZXZXZXZXZXZXZX8 M M M ZXZXp _ E.' ).|.|.s.ZXZXZXZXZXZXZXZXZX",
"ZXZXZXZXZXZXZXZXZXZXZXZXZXZXZX9 9 _ ' /.ZXZXZXZXZXZXZXZXZXZXZXZX",
"ZXZXZXZXZXZXZXZXZXZXZXZXZXZXZXZXZXZXZXZXZXZXZXZXZXZXZXZXZXZXZXZX"
};
