/* XPM */
static char *_93065f352944a0984f98b1e622cdc06[] = {
/* columns rows colors chars-per-pixel */
"64 64 256 2 ",
"   c #1A1955",
".  c #1B1D5B",
"X  c #1A1751",
"o  c #1C225E",
"O  c #232C54",
"+  c #33245C",
"@  c #3D2B5C",
"#  c #382956",
"$  c #2B345A",
"%  c #2C3459",
"&  c #32395E",
"*  c #3A3B5E",
"=  c #1D2762",
"-  c #1A3476",
";  c #242C64",
":  c #392964",
">  c #342966",
",  c #2A346B",
"<  c #2A3D6E",
"1  c #273569",
"2  c #343D62",
"3  c #3A3B6A",
"4  c #273B7A",
"5  c #323A71",
"6  c #641E52",
"7  c #5B375E",
"8  c #672955",
"9  c #67365A",
"0  c #75355B",
"q  c #7B365D",
"w  c #763A5E",
"e  c #78375B",
"r  c #70275E",
"t  c #45316D",
"y  c #49326D",
"u  c #5A3F60",
"i  c #48326F",
"p  c #693C63",
"a  c #7C3C62",
"s  c #663E7C",
"d  c #753070",
"f  c #374165",
"g  c #394266",
"h  c #3A436A",
"j  c #37436E",
"k  c #2E4272",
"l  c #2E427D",
"z  c #354374",
"x  c #394475",
"c  c #34467B",
"v  c #39467B",
"b  c #3B4B7D",
"n  c #3F4A71",
"m  c #14747F",
"M  c #15667D",
"N  c #216F7E",
"B  c #5D4262",
"V  c #5C4D6D",
"C  c #564C6D",
"Z  c #424B78",
"A  c #49577D",
"S  c #5A5070",
"D  c #544A7E",
"F  c #634565",
"G  c #654B6B",
"H  c #6B4B6B",
"J  c #6A4468",
"K  c #714D6E",
"L  c #72516F",
"P  c #6A4677",
"I  c #645579",
"U  c #6A527D",
"Y  c #675778",
"T  c #755372",
"R  c #7B5576",
"E  c #7A597A",
"W  c #764871",
"Q  c #4C627E",
"!  c #81365E",
"~  c #823D64",
"^  c #843662",
"/  c #833C75",
"(  c #8A367A",
")  c #8C3B7B",
"_  c #873B78",
"`  c #953A7C",
"'  c #94297F",
"]  c #AA367D",
"[  c #A5387B",
"{  c #894168",
"}  c #87467A",
"|  c #9C457C",
" . c #93447B",
".. c #835C7C",
"X. c #895D7D",
"o. c #9E507E",
"O. c #A44579",
"+. c #AE497D",
"@. c #A4477A",
"#. c #B14A7F",
"$. c #B7497D",
"%. c #AD517F",
"&. c #1A3682",
"*. c #243783",
"=. c #243A85",
"-. c #253D89",
";. c #753984",
":. c #7B3989",
">. c #2B458A",
",. c #334681",
"<. c #364A83",
"1. c #3B4B83",
"2. c #3D4E88",
"3. c #3E5187",
"4. c #29578A",
"5. c #146682",
"6. c #137B82",
"7. c #206686",
"8. c #5B4C84",
"9. c #574882",
"0. c #455482",
"q. c #4A5683",
"w. c #4C5986",
"e. c #43548A",
"r. c #4C5B89",
"t. c #445A8A",
"y. c #505E89",
"u. c #57588A",
"i. c #4A5D91",
"p. c #5D5791",
"a. c #434F80",
"s. c #664A85",
"d. c #79458B",
"f. c #64548A",
"g. c #655B8D",
"h. c #67578B",
"j. c #765E8A",
"k. c #785C8A",
"l. c #6C5E92",
"z. c #715F93",
"x. c #4B6386",
"c. c #54638C",
"v. c #5B658E",
"b. c #4C6293",
"n. c #536496",
"m. c #5C6A92",
"M. c #5C6C9B",
"N. c #576995",
"B. c #59729E",
"V. c #61628E",
"C. c #7B638E",
"Z. c #7D688F",
"A. c #6D6293",
"S. c #626D94",
"D. c #6B6B93",
"F. c #696497",
"G. c #726396",
"H. c #726B99",
"J. c #796A9A",
"K. c #756698",
"L. c #637196",
"P. c #64739B",
"I. c #6B7699",
"U. c #6D7096",
"Y. c #73749B",
"T. c #75799D",
"R. c #7A789E",
"E. c #726EA1",
"W. c #6374A2",
"Q. c #6A7AA5",
"!. c #6E7EA9",
"~. c #6679A4",
"^. c #7B7CA3",
"/. c #787AA5",
"(. c #962B81",
"). c #9B2D85",
"_. c #823E8E",
"`. c #963B81",
"'. c #9A3D83",
"]. c #9C3682",
"[. c #8A3194",
"{. c #8C3398",
"}. c #A12F88",
"|. c #A53C84",
" X c #8C4784",
".X c #9D4185",
"XX c #934A85",
"oX c #8D538B",
"OX c #895688",
"+X c #9E5A86",
"@X c #93548D",
"#X c #9B5582",
"$X c #8E5D91",
"%X c #955891",
"&X c #8C4E98",
"*X c #A94889",
"=X c #B44C83",
"-X c #B94E86",
";X c #B24685",
":X c #A55482",
">X c #A75987",
",X c #B5518A",
"<X c #BA528C",
"1X c #B84B95",
"2X c #B95592",
"3X c #836B9A",
"4X c #936793",
"5X c #A8648E",
"6X c #B3678F",
"7X c #AC6A94",
"8X c #B66D95",
"9X c #B47297",
"0X c #B57499",
"qX c #B8769C",
"wX c #BA7A9E",
"eX c #B6789C",
"rX c #A27398",
"tX c #9553A1",
"yX c #9E49A4",
"uX c #BD5AAA",
"iX c #A04DA4",
"pX c #857AA5",
"aX c #8A7BA6",
"sX c #8C7FA9",
"dX c #877FA9",
"fX c #9A7DA3",
"gX c #BC7DA0",
"hX c #B67EA1",
"jX c #A67DA0",
"kX c #CC4A8D",
"lX c #C34D88",
"zX c #CF4D91",
"xX c #C54D9C",
"cX c #D54E93",
"vX c #D25396",
"bX c #C26496",
"nX c #C56A9A",
"mX c #C96698",
"MX c #C65DAE",
"NX c #C96DB3",
"BX c #CB71B6",
"VX c #CD75BA",
"CX c #CC79B2",
"ZX c #7982A3",
"AX c #8D82AA",
"SX c #8483A6",
"DX c #9284AD",
"FX c #8998B6",
"GX c #A481A6",
"HX c #BD83A3",
"JX c #B380A1",
"KX c #B299AF",
"LX c #C38AA9",
"PX c #C086A6",
"IX c #C686B9",
"UX c None",
/* pixels */
"UXUXUXUXUXUXUXUXUXUXUXUXUXUXUXUXUXUXUXUXUXUXUXUXUXUXUXUXUXUXUXUXUXUXUXUXUXUXUXUXUXUXUXUXUXUXUXUXUXUXUXUXUXUXUXUXUXUXUXUXUXUXUXUX",
"UXUXUXUXUXUXUXUXUXUXUXUXUXUXUXUXUXUXUXUXUXUXUXUXUXUXUXUXUXUXUXUXUXUXUXUXUXUXUXUXUXUXUXUXUXUXUXUXUXUXUXUXUXUXUXUXUXUXUXUXUXUXUXUX",
"UXUXUXUXUXUXUXUXUXUXUXUXUXUXUXUXUXUXUXUXUXUXUXUXUXUX!.!.!.!.!.!.!.!.!.AXAXUXUXUXUXUXUXUXUXUXUXUXUXUXUXUXUXUXUXUXUXUXUXUXUXUXUXUX",
"UXUXUXUXUXUXUXUXUXUXUXUXUXUXUXUXUXUXUXUXUXUXUX!.!.!.!.!.Q.Q.!.Q.!.Q.^.AXAXAXAXDXDXUXUXUXUXUXUXUXUXUXUXUXUXUXUXUXUXUXUXUXUXUXUXUX",
"UXUXUXUXUXUXUXUXUXUXUXUXUXUXUXUXUXUXUXUXQ.~.~.~.~.~.Q.~.~.~.~.~.~.^.dXdXdXdXAXAXAXAXAXAXUXUXUXUXUXUXUXUXUXUXUXUXUXUXUXUXUXUXUXUX",
"UXUXUXUXUXUXUXUXUXUXUXUXUXUXUXUXUXUXIXSXW.~.W.W.~.W.W.~.W.~.~.W./.pXpXpXdXpXdXsXsXsXsXsXpXfXUXUXUXUXUXUXUXUXUXUXUXUXUXUXUXUXUXUX",
"UXUXUXUXUXUXUXUXUXUXUXUXUXUXUXUXVXVX/.M.W.W.W.W.W.W.W.W.W.W.W./.sXaXaXpXpXaXaXaXaXaXsXSXGXHXHXJXUXUXUXUXUXUXUXUXUXUXUXUXUXUXUXUX",
"UXUXUXUXUXUXUXUXUXUXUXUXUXUXUXVXVXE.M.W.W.M.W.W.M.UXUXUXUXUXUXUXUXUXUXUXUXUXUXaXaXaXpXGXLXLXPXhXhXUXUXUXUXUXUXUXUXUXUXUXUXUXUXUX",
"UXUXUXUXUXUXUXUXUXUXUXUXUXBXVXBXE.B.M.M.M.M.UXUXUXUXUXUXUXUXUXUXUXUXUXUXUXUXUXUXUXUXfXLXPXLXLXHXeXhXhXUXUXUXUXUXUXUXUXUXUXUXUXUX",
"UXUXUXUXUXUXUXUXUXUXUXUXBXBXBXE.M.M.M.M.UXUXUXUXUXUXUXUXUXUXUXUXUXUXUXUXUXUXUXUXUXUXUXUXPXPXPXPXJXeXhXJXUXUXUXUXUXUXUXUXUXUXUXUX",
"UXUXUXUXUXUXUXUXUXUXUXNXBXNXH.n.M.n.M.UXUXUXUXUXUXUXUXUXUXUXUXUXUXUXUXUXUXUXUXUXUXUXUXUXUXPXPXHXHXHXeXhXKXUXUXUXUXUXUXUXUXUXUXUX",
"UXUXUXUXUXUXUXUXUXUXUXUXNXE.b.n.n.UXUXUXUXUXUXUXUXUXUXUXUXpX3XJ.3XJ.3XUXUXUXUXUXUXUXUXUXUXUXUXHXHXHXgXhXKXFXUXUXUXUXUXUXUXUXUXUX",
"UXUXUXUXUXUXUXUXUXUXUXUXUXb.n.b.UXUXUXUXUXUXUXUXUXH.J.J.J.J.J.J.J.J.J.J.J.H.rXUXUXUXUXUXUXUXUXUXgXgXgXJX/.ZX^.UXUXUXUXUXUXUXUXUX",
"UXUXUXUXUXUXUXUXUXUXUXUXUXUXUXUXUXUXUXUXUXUXUXi.F.K.K.G.G.G.G.K.G.H.G.G.G.3X0XgXgXUXUXUXUXUXUXUXUXgXGXZXR.G.G.G.UXUXUXUXUXUXUXUX",
"UXUXUXUXUXUXUXUXUXUXUXUXUXUXUXUXUXUXUXUXUXi.i.V.z.K.K.G.G.G.G.G.G.G.G.F.3X7X8XwXwXwXwXUXUXUXUXUXUXUXZX!.SX^.G.G.UXUXUXUXUXUXUXUX",
"UXUXUXUXUXUXUXMXuXUXUXUXUXUXUXUXUXUXUXe.i.i.g.z.l.z.K.K.l.A.l.l.A.A.l.$X5X5X7XqXqXwX0XqXwXUXUXUXUXUXUXT.pXZXR.l.z.UXUXUXUXUXUXUX",
"UXUXUXUXUXUXMXMXp.3.t.UXUXUXUXUXUXUXe.t.t.p.z.l.l.z.z.G.UXUXUXUXUXUXUXUX5X5X7XeX0X0X0X0X0X0XUXUXUXUXUXUX^.^.ZXT.l.l.UXUXUXUXUXUX",
"UXUXUXUXUXUXuXp.2.e.e.e.v UXUXUXUX3.e.3.p.h.h.h.l.UXUXUXUXUXUXUXUXUXUXUXUXUXUX0X9X9X9X9X9X0XrXUXUXUXUXUXUX^.^.^.Y.h.UXUXUXUXUXUX",
"UXUXUXUXUXuXp.<.e.2.3.2.c z UXUXz z 1.u.h.g.f.UXUXUXUXUXUXUXUXUXUXUXUXUXUXUXUXUXUX8X8X9X0XrXI.I.UXUXUXUXUXT.R.T.R.U.h.UXUXUXUXUX",
"UXUXUXUXUX9.,.2.<.2.2.2.k k k k k k c.V.f.f.UXUXUXUXUXUXUXUXf.7X8XUXUXUXUXUXUXUXUXUX6X8X4Xy.I.P.L.UXUXI.T.T.T.T.T.R.tXUXUXUXUXUX",
"UXUXUXUX5 , 5 <.<.<.<.<.k < k < < x.I.S.p.UXUXUXUXUXf.h.h.f.$XnXnX5X+X+X+XUXUXUXUXUXUX$X2.,.r.L.L.L.S.P.T.Y.Y.Y.Y.tXiXUXUXUXUXUX",
"UXUXUXUX, , , , ,.UX<.,.< < < < r.P.L.S.UXUXUXUXUXf.f.f.f.$XmXnXmXnX>X#X+X+X+XUXUXUXUXUX,.<.,.t.P.S.L.S.Y.I.I.H.tXiXUXUXUXUXUXUX",
"UXUXUXUX, ; ; ; UXUXUXUX< 1 1 w.S.m.M.UXUXUXUX8.8.s.f.8.oXmXbXbXbXbXmX>Xo.#X>X6XUXUXUXUXUXl ,.l 0.L.m.S.U.U.H.tXUXUXUXUXUXUXUXUX",
"UXUXUX; ; , ; ; UXUXUXUXUX1 0.S.m.m.UXUXUXUXv.8.9.8.8.oXmXbXbXmXbXbXbXmX>Xo.+X6XOXUXUXUXUXUXl ,.l t.m.m.D.D.UXUXUXUXUXUXUXUXUXUX",
"UXUXUX; = ; = ; UXUXUXUXUXa.M.v.v.N.UXUXUXv.N.m.9.9.OXmXUXUXUXUXUXUXUXUXbX>X>XOX4 4 UXUXUXUX4 4 4 4 1.m.UXUXUXUXUXUXUXUXUXUXUXUX",
"UXUXUX= = o = UXUXUXUXUXr.v.c.c.c.UXUXUXUXb.c.c.x.OXUXUXUXUXUXUXUXUXUXUXUX2XOXb <.b UXUXUXUXUXv ,.1.<.q.UXUXUXUXUXUXUXUX&XUXUXUX",
"UXUXUXo o o o UXUXUXUXUX4.n.c.c.c.UXUXUXc.c.v.x.$XUXUXUXUXUXUXUXUXUXUXUXUXUXy.V.D.D.V.UXUXUXUXD.A.D.D.d.UXUXUXUXUXUX3XZ.Z.UXUXUX",
"UXUXo . o o o UXUXUXUXUX-.>.y.y.c.UXUXUXc.c.x.%XUXUXUXUXUXUXUXUXUXUXUXUXUXUXUXc.v.V.V.UXUXUXUXV.v.g.d._.UXUXUXUXUXC.C.C.C.C.UXUX",
"UXUX. . . . . UXUXUXUXUX>.-.>.r.UXUXUXy.y.t.$XcXUXUXUXUXUXUX:X:X:X:XUXUXUXUXUXy.y.v.V.V.UXUXUXUXg.:.d._.UXUXUXUXUXC.C.C.C.C.UXUX",
"UXUX: .     . UXUXUXUX-.>.-.-.>.UXUXUXy.t.OXvXUXUXUXUXUXUX:Xo.:Xo.%.OXUXUXUXUXUXw.r.u.V.UXUXUXUXd.;.;.:.{.UXUXUXUXk.k.j.k..XUXUX",
"UXUXi : X X X UXUXUXUX-.-.-.-.=.UXUXUX3.OXcXcXUXUXUXUXUX<X<X:Xo.%.} 1.v v b a.w.q.q.q.u.UXUXUXUX:.;.;.:.{.UXUXUXUXj.j.j..X|.UXUX",
"UXUXi i :   = UXUXUXUX=.-.=.=.=.UXUXUXoXcXzXzXUXUXUXUXUX-X-X-X%.} b v v v v Z q.q.q.q.q.UXUXUXUX;.;.;.:.[.UXUXUXUXd.k.[ ] ] UXUX",
"UXUXi i i > -.UXUXUXUX=.=.=.=.=.UXUXUXcXzXzXzXUXUXUXUXUX-X=XlXXXc c b v v v Z q.q.q.q.0.UXUXUXUX;.;.;.;.[.UXUXUXUX{.*X] |.] UXUX",
"UXUXt t : > > UXUXUXUX=.=.=.=.=.UXUXUX-XzXzXzXUXUXUXUXUX=XlXXXx z v x x z z b q.A A A A UXUXUXUXUXUXUXUXUXUXUXUXUX2X2X=X] ] UXUX",
"UXUXt : + > + UXUXUXUX*.*.*.*.&.UXUXUX=X-XkXkXUXUXUXUXUXUX .z z z x x UXUXUXUXUXUXUXUXUXUXUXUXUXUXUXUXUXUXUXUXUXUX<X<X2X;X] UXUX",
"UXUX: + + + + UXUXUXUXUX*.*.&.;.UXUXUX-X#.#.kXkXUXUXUXUXUXUXz z x x UXUXUXUXUXUXUXUXUXUXUXUXUXUXUXUXUXUXUXUXUXUXUX<X<X<X<X;XUXUX",
"UXUX+ + + + + UXUXUXUXUX*.- s.$.#.UXUXUX#.#.#.kXUXUXUXUXUXUXUXUXUXUXUXUXUXUXUXUXUXUXUXUXUXUXUXUXUXUXUXUXUXUXUXUXUX,X,X2X,X<XUXUX",
"UXUXUX+ + + + UXUXUXUXUX- s $.+.#.UXUXUX+.#.+.#.lXUXUXUXUXUXUXUXUXUXUXUXUXUXn Z U U U U U U U U U U s.d UXUXUXUXUX,X,X,X,XUXUXUX",
"UXUXUX+ + # + UXUXUXUXUXs O.O.O.O.UXUXUXUXO.O.O.$.} UXUXUXUXUXUXUXUXUXUXUXz Z U U U U U U U U U U U U P UXUXUXUXUX;X*X=X;XUXUXUX",
"UXUXUX@ @ @ @ @ UXUXUXUXUX^ a ~ ~ ~ UXUXUX~ ! ^ p 3.y.y.UXUXUXUXUXUXUXUXr.w.E X.X...................X.UXUXUXUXUX}.}.}.}.}.UXUXUX",
"UXUXUX@ @ @ @ @ UXUXUXUXUX{ q q q q UXUXUXUX! p n Z 3.r.y.w.r.w.r.r.r.t.y.Y j.X...X.............E OX2XUXUXUXUXUX).}.).).).UXUXUX",
"UXUXUXUX@ @ @ @ UXUXUXUXUXUX{ q q q q UXUXUXUXZ n b 1.b 0.w.w.w.q.w.r.q.Y Y Y X.UXUXUXUXUXE ......2XUXUXUXUXUXUX).).).).UXUXUXUX",
"UXUXUXUX# # # # 7 UXUXUXUXUX{ { q q 0 q UXUXUXUXUXb 1.1.3.0.w.q.q.q.q.I Y I Y UXUXUXUXUX....E E 2XxXUXUXUXUXUX].(.(.).(.UXUXUXUX",
"UXUXUXUX# # # 7 { UXUXUXUXUXUX{ ~ 0 0 q p UXUXUXUXUXb b b b 0.0.0.A I I Y UXUXUXUXUXUXR R R ..1XxXUXUXUXUXUXUX:X].(.(.(.UXUXUXUX",
"UXUXUXUXUX# 7 ^ ~ { UXUXUXUXUX~ ~ ~ q 7 h h UXUXUXUXUXUXUXUXb 0.0.UXUXUXUXUXUXUXUXUXT R T E 1X1X1XUXUXUXUXUX@.@.@.` (.UXUXUXUXUX",
"UXUXUXUXUX7 ~ ~ ~ { ~ UXUXUXUXUX{ ~ p h h h h UXUXUXUXUXUXUXUXUXUXUXUXUXUXUXUXUXUXT T T T *X1X1XUXUXUXUXUX| | .X| | f.UXUXUXUXUX",
"UXUXUXUXUXUXq { ! ~ ~ UXUXUXUXUXUXJ h h h h h h g UXUXUXUXUXUXUXUXUXUXUXUXUXUXT T T T T }  .*XUXUXUXUXUXUX| | | O.x.UXUXUXUXUXUX",
"UXUXUXUXUXUX8 0 W a a a UXUXUXUXUXUXg g g g g g g z c v UXUXUXUXUXUXUXUXS S H T T T T } } _ UXUXUXUXUXUX .|  .O.x.6.UXUXUXUXUXUX",
"UXUXUXUXUXUXUX9 e a w w a UXUXUXUXUXUXf f f g f f z x z x H L L L L L S S S G L K T } ) _ UXUXUXUXUXUX*X| ` ` Q m UXUXUXUXUXUXUX",
"UXUXUXUXUXUXUXUX8 0 w e w w UXUXUXUXUXUXUXf 2 f 2 z k x K K L L K K K H C C G K K W _ UXUXUXUXUXUXUX1X.X{  .Q m UXUXUXUXUXUXUXUX",
"UXUXUXUXUXUXUXUX8 8 9 e e u g UXUXUXUXUXUXUXUX2 2 < x H H K H H H H H K H C V K W UXUXUXUXUXUXUXUX} .X*X` Q 6.N UXUXUXUXUXUXUXUX",
"UXUXUXUXUXUXUXUXUX9 8 0 9 2 2 f UXUXUXUXUXUXUXUXUXj G H H H H H G H H H H G G UXUXUXUXUXUXUXUXUX/ d / ].A m N UXUXUXUXUXUXUXUXUX",
"UXUXUXUXUXUXUXUXUXUX^ p & & & & & UXUXUXUXUXUXUXUXUXUXUXUXH H G G H H UXUXUXUXUXUXUXUXUXUXUXUX.X.X'.|.q.5.7.UXUXUXUXUXUXUXUXUXUX",
"UXUXUXUXUXUXUXUXUXUXUXg % $ 2 & 2 & & UXUXUXUXUXUXUXUXUXUXUXF H G G UXUXUXUXUXUXUXUXUXUXUX.X.X.X.X.Xw.5.N UXUXUXUXUXUXUXUXUXUXUX",
"UXUXUXUXUXUXUXUXUXUXUXUX$ O $ & & & & & UXUXUXUXUXUXUXUXUXUXF F F F UXUXUXUXUXUXUXUXUXUX'..X'..X|.q.5.7.UXUXUXUXUXUXUXUXUXUXUXUX",
"UXUXUXUXUXUXUXUXUXUXUXUXUXO O $ $ & & & $ * UXUXUXUXUXUXUXUXF F F F UXUXUXUXUXUXUXUX.X'..X'.'.'.q.5.4.UXUXUXUXUXUXUXUXUXUXUXUXUX",
"UXUXUXUXUXUXUXUXUXUXUXUXUXUXUXO O $ & $ & B F F B UXUXUXUXUXF B B F UXUXUXUXUX%X@X%X@X'.].'.].a.5.UXUXUXUXUXUXUXUXUXUXUXUXUXUXUX",
"UXUXUXUXUXUXUXUXUXUXUXUXUXUXUXUXO % $ & B F B B B UXUXUXUXUXJ B F ) ].`.`.`.XX%X@X@X@X@X'.` a.M UXUXUXUXUXUXUXUXUXUXUXUXUXUXUXUX",
"UXUXUXUXUXUXUXUXUXUXUXUXUXUXUXUXUXUX% B B u B B B UXUXUXUXUXG J _ `.`.`.(.`  X@X@X@X@X@XoXD UXUXUXUXUXUXUXUXUXUXUXUXUXUXUXUXUXUX",
"UXUXUXUXUXUXUXUXUXUXUXUXUXUXUXUXUXUXUXUXu u u u B UXUXUXUXUXJ r r ) ) ) ) `  XoXoXoXoXoXUXUXUXUXUXUXUXUXUXUXUXUXUXUXUXUXUXUXUXUX",
"UXUXUXUXUXUXUXUXUXUXUXUXUXUXUXUXUXUXUXUXUXUXUXu u UXUXUXUXUX8 6 6 r ( ( ( (  XOXoXUXUXUXUXUXUXUXUXUXUXUXUXUXUXUXUXUXUXUXUXUXUXUX",
"UXUXUXUXUXUXUXUXUXUXUXUXUXUXUXUXUXUXUXUXUXUXUXUXUXUXUXUXUXUX6 6 6 6 r ( ( ( UXUXUXUXUXUXUXUXUXUXUXUXUXUXUXUXUXUXUXUXUXUXUXUXUXUX",
"UXUXUXUXUXUXUXUXUXUXUXUXUXUXUXUXUXUXUXUXUXUXUXUXUXUXUXUXUXUXUXUXUXUXUXUXUXUXUXUXUXUXUXUXUXUXUXUXUXUXUXUXUXUXUXUXUXUXUXUXUXUXUXUX",
"UXUXUXUXUXUXUXUXUXUXUXUXUXUXUXUXUXUXUXUXUXUXUXUXUXUXUXUXUXUXUXUXUXUXUXUXUXUXUXUXUXUXUXUXUXUXUXUXUXUXUXUXUXUXUXUXUXUXUXUXUXUXUXUX"
};
