/* XPM */
static char *b06996d3a2ba41e8c63066e7ccf84aea[] = {
/* columns rows colors chars-per-pixel */
"16 16 118 2 ",
"   c #211D5A",
".  c #1C225D",
"X  c #36255A",
"o  c #31355A",
"O  c #31365C",
"+  c #30385D",
"@  c #302664",
"#  c #382863",
"$  c #3F2D68",
"%  c #29346B",
"&  c #343F64",
"*  c #432D5B",
"=  c #6E375D",
"-  c #71365B",
";  c #7B375E",
":  c #593C60",
">  c #5F3E64",
",  c #792966",
"<  c #653E62",
"1  c #7F3E63",
"2  c #7E3770",
"3  c #7B3F75",
"4  c #3A4268",
"5  c #3F446E",
"6  c #2E4E7F",
"7  c #354776",
"8  c #394377",
"9  c #574061",
"0  c #434D7D",
"q  c #5E547B",
"w  c #5F577D",
"e  c #634A67",
"r  c #654968",
"t  c #644D6E",
"y  c #6D4D6C",
"u  c #6D4D6E",
"i  c #6E4B7D",
"p  c #7B4771",
"a  c #764F72",
"s  c #7A4A7D",
"d  c #7F497E",
"f  c #7C4D7F",
"g  c #69597E",
"h  c #74537D",
"j  c #71577C",
"k  c #77557C",
"l  c #893D62",
"z  c #9A3F7F",
"x  c #99457B",
"c  c #88587E",
"v  c #A34579",
"b  c #1E3784",
"n  c #233E88",
"m  c #7C3E8A",
"M  c #3C4D84",
"N  c #455184",
"B  c #465585",
"V  c #4F5782",
"C  c #46518A",
"Z  c #4D5D8D",
"A  c #5F5083",
"S  c #545C87",
"D  c #545188",
"F  c #545A8F",
"G  c #585B8A",
"H  c #604D85",
"J  c #774682",
"K  c #625A8F",
"L  c #78578B",
"P  c #7E5989",
"I  c #755295",
"U  c #56608B",
"Y  c #58658D",
"T  c #556690",
"R  c #616C9C",
"E  c #706497",
"W  c #726496",
"Q  c #746698",
"!  c #786699",
"~  c #74729A",
"^  c #77779D",
"/  c #7B759F",
"(  c #6274A1",
")  c #6676A3",
"_  c #6578A4",
"`  c #6A7BA6",
"'  c #7F7DA6",
"]  c #777EA8",
"[  c #9C2C83",
"{  c #9A3E85",
"}  c #B23F81",
"|  c #964B83",
" . c #904B85",
".. c #954588",
"X. c #865B8A",
"o. c #9C5583",
"O. c #94518C",
"+. c #9F5590",
"@. c #AF4789",
"#. c #B64C8A",
"$. c #AF5284",
"%. c #A3578C",
"&. c #8E7096",
"*. c #A76194",
"=. c #A16E97",
"-. c #B96291",
";. c #B47198",
":. c #976BA8",
">. c #897DA7",
",. c #8C76AA",
"<. c #907EA8",
"1. c #CF4C8D",
"2. c #C0799D",
"3. c #A082A3",
"4. c #B680A1",
"5. c #B183A6",
"6. c #BF85A5",
"7. c None",
/* pixels */
"7.7.7.7.7.7.7.` ] 7.7.7.7.7.7.7.",
"7.7.7.7.,.( ) _ ' >.<.5.7.7.7.7.",
"7.7.7.:.R 7.7.7.7.7.7.6.4.7.7.7.",
"7.7.7.7.7.F W Q W =.2.7.3./ 7.7.",
"7.I C 7.N K 7.7.7.7.;.&.7.^ ! 7.",
"7.% 7.7 Y 7.H *.-.o.7.M T ~ 7.7.",
"7.. 7.Z 7.U L 7.7.X.G 7.D 7.7.7.",
"@   7.n 7.+.7.$.i M S 7.m 7.P  .",
"$ # 7.b 7.1.7.d 7 7.7.7.7.7.#.} ",
"7.X 7.3 7.v s 7.7.q k j h 7.@.7.",
"7.* 7.l ; 7.0 B V g 7.c %.7.[ 7.",
"7.= 1 7.> 4 7.7.7.7.a | 7.x f 7.",
"7.7.- : 7.& 5 y y t p 7.z w 7.7.",
"7.7.7.O + 7.7.r e 7.7.{ A 7.7.7.",
"7.7.7.7.o 9 7.< 2 ..O.J 7.7.7.7.",
"7.7.7.7.7.7.7.7., 7.7.7.7.7.7.7."
};
